<svg width="1600" height="1000" viewBox="0 0 1600 1000" fill="none" xmlns="http://www.w3.org/2000/svg">
  <defs>
    <linearGradient id="bg" x1="160" y1="80" x2="1440" y2="920" gradientUnits="userSpaceOnUse">
      <stop stop-color="#6DD3F5"/>
      <stop offset="0.45" stop-color="#7C7FF8"/>
      <stop offset="1" stop-color="#FF9FB7"/>
    </linearGradient>
    <radialGradient id="glowA" cx="0" cy="0" r="1" gradientUnits="userSpaceOnUse" gradientTransform="translate(320 220) rotate(42) scale(300 300)">
      <stop stop-color="white" stop-opacity="0.38"/>
      <stop offset="1" stop-color="white" stop-opacity="0"/>
    </radialGradient>
    <radialGradient id="glowB" cx="0" cy="0" r="1" gradientUnits="userSpaceOnUse" gradientTransform="translate(1280 180) rotate(42) scale(240 240)">
      <stop stop-color="white" stop-opacity="0.28"/>
      <stop offset="1" stop-color="white" stop-opacity="0"/>
    </radialGradient>
    <radialGradient id="glowC" cx="0" cy="0" r="1" gradientUnits="userSpaceOnUse" gradientTransform="translate(1210 720) rotate(42) scale(380 380)">
      <stop stop-color="white" stop-opacity="0.22"/>
      <stop offset="1" stop-color="white" stop-opacity="0"/>
    </radialGradient>
  </defs>
  <rect width="1600" height="1000" fill="url(#bg)"/>
  <circle cx="320" cy="220" r="300" fill="url(#glowA)"/>
  <circle cx="1280" cy="180" r="240" fill="url(#glowB)"/>
  <circle cx="1210" cy="720" r="380" fill="url(#glowC)"/>
  <path d="M101 778C321 645 522 625 703 718C884 811 1053 832 1210 780C1315 745 1410 682 1496 590" stroke="rgba(255,255,255,0.28)" stroke-width="2.5" stroke-linecap="round"/>
  <path d="M162 860C360 736 571 714 796 796C998 870 1195 870 1388 802" stroke="rgba(255,255,255,0.16)" stroke-width="2" stroke-linecap="round"/>
</svg>
